<?xml version="1.0" encoding="UTF-8" standalone="no"?>
<svg
   xmlns:dc="http://purl.org/dc/elements/1.1/"
   xmlns:cc="http://creativecommons.org/ns#"
   xmlns:rdf="http://www.w3.org/1999/02/22-rdf-syntax-ns#"
   xmlns:svg="http://www.w3.org/2000/svg"
   xmlns="http://www.w3.org/2000/svg"
   version="1.1"
   id="svg2"
   xml:space="preserve"
   width="1131.7117"
   height="334.18558"
   viewBox="0 0 1131.7117 334.18558"><metadata
     id="metadata8"><rdf:RDF><cc:Work
         rdf:about=""><dc:format>image/svg+xml</dc:format><dc:type
           rdf:resource="http://purl.org/dc/dcmitype/StillImage" /><dc:title></dc:title></cc:Work></rdf:RDF></metadata><defs
     id="defs6"><clipPath
       clipPathUnits="userSpaceOnUse"
       id="clipPath18"><path
         d="M 0,1080 H 1920 V 0 H 0 Z"
         id="path16" /></clipPath><linearGradient
       x1="0"
       y1="0"
       x2="1"
       y2="0"
       gradientUnits="userSpaceOnUse"
       gradientTransform="matrix(193.49435,0,0,-193.49435,556.19019,562.33118)"
       spreadMethod="pad"
       id="linearGradient118"><stop
         style="stop-opacity:1;stop-color:#26a8df"
         offset="0"
         id="stop112" /><stop
         style="stop-opacity:1;stop-color:#26a8df"
         offset="0.00334875"
         id="stop114" /><stop
         style="stop-opacity:1;stop-color:#2f368d"
         offset="1"
         id="stop116" /></linearGradient></defs><g
     id="g10"
     transform="matrix(1.3333333,0,0,-1.3333333,-714.14403,887.09331)"><g
       id="g12"><g
         id="g14"
         clip-path="url(#clipPath18)"><g
           id="g20"
           transform="translate(806.4888,457.8606)"><path
             d="m 0,0 c 0,8.368 -5.691,11.129 -15.984,11.129 -5.94,0 -9.372,-0.752 -9.372,-0.752 V -12.05 c 3.681,-0.084 7.448,-0.168 9.372,-0.168 C -5.691,-12.218 0,-9.624 0,-0.586 Z M 8.535,-42.594 H 3.18 c -1.004,0 -1.508,0 -2.176,1.088 l -14.812,22.761 h -0.754 c -4.183,0 -6.359,0.084 -10.794,0.251 v -22.427 c 0,-1.673 -0.585,-1.673 -1.505,-1.673 h -4.186 c -0.837,0 -1.505,0 -1.505,1.673 v 57.323 c 4.016,1.339 11.129,1.589 16.568,1.589 C -2.761,17.991 7.28,13.556 7.28,0 V -0.586 C 7.28,-9.958 1.757,-15.481 -5.857,-17.49 L 9.456,-41.004 c 1.255,-1.59 -0.167,-1.59 -0.921,-1.59"
             style="fill:#3daf2c;fill-opacity:1;fill-rule:nonzero;stroke:none"
             id="path22" /></g><g
           id="g24"
           transform="translate(847.0698,470.4126)"><path
             d="m 0,0 c -0.25,1.004 -1.755,1.004 -2.09,0 l -8.203,-28.033 H 8.202 Z m 22.595,-53.473 c 0.502,-1.589 0.419,-1.673 -0.585,-1.673 h -4.937 c -0.754,0 -1.006,0 -1.422,1.255 l -5.86,19.665 h -21.672 l -5.775,-19.665 c -0.335,-1.255 -0.837,-1.255 -1.505,-1.255 H -24.1 c -0.835,0 -1.17,0 -0.669,1.673 L -9.12,0 c 1.505,5.105 4.937,6.36 8.116,6.36 3.097,0 6.612,-1.171 8.034,-6.276 z"
             style="fill:#3daf2c;fill-opacity:1;fill-rule:nonzero;stroke:none"
             id="path26" /></g><g
           id="g28"
           transform="translate(912.2554,449.8271)"><path
             d="m 0,0 c 0,15.146 -7.867,19.498 -17.908,19.498 -4.937,0 -9.538,-0.669 -9.538,-0.669 V -27.95 c 2.677,-0.167 5.605,-0.502 9.538,-0.502 10.041,0 17.908,4.268 17.908,19.331 z m -17.908,-35.146 c -7.95,0 -16.82,1.589 -16.82,1.589 v 57.908 c 0,0 5.106,1.59 16.82,1.59 C -2.426,25.941 7.196,18.075 7.196,0 v -9.121 c 0,-17.909 -9.622,-26.025 -25.104,-26.025"
             style="fill:#3daf2c;fill-opacity:1;fill-rule:nonzero;stroke:none"
             id="path30" /></g><g
           id="g32"
           transform="translate(936.1013,415.2664)"><path
             d="m 0,0 h -4.266 c -0.838,0 -1.508,0 -1.508,1.674 v 57.238 c 0,1.59 0.585,1.59 1.508,1.59 H 0 c 0.837,0 1.505,0 1.505,-1.59 V 1.674 C 1.505,0 0.92,0 0,0"
             style="fill:#3daf2c;fill-opacity:1;fill-rule:nonzero;stroke:none"
             id="path34" /></g><g
           id="g36"
           transform="translate(986.226,450.3289)"><path
             d="M 0,0 C 0,14.059 -5.857,19.414 -15.063,19.414 -24.184,19.414 -30.21,14.059 -30.21,0 v -10.209 c 0,-14.058 5.943,-18.578 15.147,-18.578 9.122,0 15.063,4.52 15.063,18.578 z m -15.063,-35.648 c -13.137,0 -22.426,6.861 -22.426,25.439 V 0 c 0,18.578 9.289,26.276 22.426,26.276 C -1.924,26.276 7.28,18.578 7.28,0 v -10.209 c 0,-18.578 -9.204,-25.439 -22.343,-25.439"
             style="fill:#3daf2c;fill-opacity:1;fill-rule:nonzero;stroke:none"
             id="path38" /></g><g
           id="g40"
           transform="translate(1059.1073,442.6302)"><path
             d="m 0,0 h -25.522 v -25.69 c 0,-1.674 -0.754,-1.674 -1.675,-1.674 h -4.1 c -0.92,0 -1.674,0 -1.674,1.674 v 43.263 c 0,11.13 5.943,15.565 17.658,15.565 4.937,0 12.635,-0.167 16.15,-0.502 0.502,-0.084 0.837,-0.251 0.837,-0.753 v -4.602 c 0,-0.586 -0.335,-1.005 -0.92,-1.005 H -15.23 c -8.87,0 -10.292,-2.343 -10.292,-8.703 V 6.527 H 0 c 0.92,0 1.674,0 1.674,-1.673 V 1.674 C 1.674,0 0.92,0 0,0"
             style="fill:#3daf2c;fill-opacity:1;fill-rule:nonzero;stroke:none"
             id="path42" /></g><g
           id="g44"
           transform="translate(1122.6187,416.94)"><path
             d="m 0,0 c 0,-1.171 -0.668,-1.674 -1.674,-1.674 h -4.1 c -0.92,0 -1.674,0.084 -1.674,1.674 v 47.615 c 0,0.084 0,0.335 -0.167,0.335 -0.166,0 -0.25,-0.251 -0.25,-0.251 l -11.8,-24.436 c -0.837,-1.673 -1.422,-2.426 -3.263,-2.426 h -5.02 c -1.758,0 -2.01,0.251 -14.728,26.862 0,0 -0.086,0.251 -0.252,0.251 -0.167,0 -0.167,-0.335 -0.167,-0.335 V 0 c 0,-1.674 -0.754,-1.674 -1.674,-1.674 h -3.934 c -0.92,0 -1.674,0 -1.674,1.674 v 56.402 c 0,2.426 1.09,2.426 2.428,2.426 h 5.273 c 1.505,0 2.173,-0.335 2.678,-1.423 l 14.559,-30.041 c 0.169,-0.335 0.335,-0.335 0.502,0 l 14.395,30.041 c 0.501,1.088 1.17,1.423 2.677,1.423 h 5.439 c 1.339,0 2.426,0 2.426,-2.426 z"
             style="fill:#3daf2c;fill-opacity:1;fill-rule:nonzero;stroke:none"
             id="path46" /></g><g
           id="g48"
           transform="translate(1157.592,415.2664)"><path
             d="m 0,0 c -0.92,0 -1.674,0 -1.674,1.506 v 3.515 c 0,1.506 0.754,1.423 1.674,1.423 h 13.306 v 46.192 l -14.98,-6.193 v 5.607 c 0,0.586 0.252,0.753 0.837,1.088 L 13.974,60 c 0.671,0.335 1.256,0.502 1.758,0.502 h 3.265 c 0.835,0 1.588,0 1.588,-1.59 V 6.444 h 13.389 c 0.921,0 1.675,0.083 1.675,-1.423 V 1.506 C 35.649,0 34.895,0 33.974,0 Z"
             style="fill:#3daf2c;fill-opacity:1;fill-rule:nonzero;stroke:none"
             id="path50" /></g><g
           id="g52"
           transform="translate(1230.559,450.3289)"><path
             d="m 0,0 c 0,14.142 -5.187,19.749 -13.054,19.749 -7.867,0 -13.054,-5.607 -13.054,-19.749 v -9.623 c 0,-14.143 5.187,-19.749 13.054,-19.749 7.867,0 13.054,5.606 13.054,19.749 z m -13.054,-35.648 c -12.635,0 -20.419,7.531 -20.419,26.025 V 0 c 0,18.494 7.784,26.025 20.419,26.025 C -0.418,26.025 7.282,18.494 7.282,0 v -9.623 c 0,-18.494 -7.7,-26.025 -20.336,-26.025"
             style="fill:#3daf2c;fill-opacity:1;fill-rule:nonzero;stroke:none"
             id="path54" /></g><g
           id="g56"
           transform="translate(1262.1886,414.6808)"><path
             d="m 0,0 c -5.272,0 -9.957,0.753 -13.974,1.674 -0.837,0.167 -1.591,0.753 -1.591,1.589 v 4.352 c 1.508,-0.251 1.591,-0.251 1.674,-0.251 C -8.87,6.695 -3.933,6.192 0,6.192 c 9.123,0 13.223,3.682 13.223,11.716 v 0.92 c 0,4.435 -2.343,10.209 -9.958,10.209 h -15.063 c -0.92,0 -1.591,0.168 -1.591,1.507 v 2.929 c 0,1.339 0.671,1.59 1.591,1.59 H 3.265 c 8.034,0 9.958,5.523 9.958,9.958 v 0.334 c 0,6.862 -3.767,10.126 -13.223,10.126 -4.685,0 -9.203,-0.67 -14.141,-1.255 l -1.424,-0.251 v 4.435 c 0,0.753 0.754,1.422 1.591,1.59 4.017,0.837 8.618,1.673 13.974,1.673 12.469,0 20.671,-3.933 20.671,-16.318 v -0.334 c 0,-5.607 -2.594,-10.46 -7.784,-13.055 5.941,-2.929 7.784,-8.284 7.784,-13.138 v -0.92 C 20.671,5.356 12.219,0 0,0"
             style="fill:#3daf2c;fill-opacity:1;fill-rule:nonzero;stroke:none"
             id="path58" /></g><g
           id="g60"
           transform="translate(1295.8254,416.8562)"><path
             d="m 0,0 c 0,-1.59 -0.668,-1.59 -1.589,-1.59 h -3.767 c -0.837,0 -1.588,0 -1.588,1.59 v 7.448 c 0,1.673 0.668,1.673 1.588,1.673 h 3.767 c 0.838,0 1.589,0 1.589,-1.673 z"
             style="fill:#3daf2c;fill-opacity:1;fill-rule:nonzero;stroke:none"
             id="path62" /></g><g
           id="g64"
           transform="translate(1305.6163,415.2664)"><path
             d="m 0,0 c -0.923,0 -1.674,0 -1.674,1.506 v 3.515 c 0,1.506 0.751,1.423 1.674,1.423 H 13.303 V 52.636 L -1.674,46.443 v 5.607 c 0,0.586 0.25,0.753 0.837,1.088 L 13.974,60 c 0.668,0.335 1.256,0.502 1.758,0.502 h 3.263 c 0.837,0 1.59,0 1.59,-1.59 V 6.444 h 13.39 c 0.92,0 1.671,0.083 1.671,-1.423 V 1.506 C 35.646,0 34.895,0 33.975,0 Z"
             style="fill:#3daf2c;fill-opacity:1;fill-rule:nonzero;stroke:none"
             id="path66" /></g><g
           id="g68"
           transform="translate(1287.0569,624.9234)"><path
             d="m 0,0 c -0.48,0.38 -0.992,0.551 -1.61,0.551 h -93.901 c -0.689,0 -1.226,-0.182 -1.656,-0.564 -0.245,-0.232 -0.536,-0.584 -0.536,-1.367 v -21.663 c 0,-0.903 0.202,-1.554 0.594,-1.934 0.427,-0.404 0.934,-0.601 1.598,-0.601 h 31.934 v -97.442 c 0,-0.625 0.195,-1.099 0.675,-1.517 0.674,-0.62 1.183,-0.689 1.503,-0.689 h 25.591 c 0.672,0 1.15,0.191 1.541,0.629 0.435,0.489 0.64,0.993 0.64,1.577 v 97.442 H -1.61 c 0.938,0 1.326,0.343 1.578,0.682 0.471,0.631 0.699,1.239 0.699,1.853 V -1.468 C 0.562,-0.45 0.148,-0.117 0,0"
             style="fill:#3daf2c;fill-opacity:1;fill-rule:nonzero;stroke:none"
             id="path70" /></g><g
           id="g72"
           transform="translate(1007.2381,528.8059)"><path
             d="m 0,0 c -17.483,0 -32.271,13.638 -33.654,31.037 -0.077,0.986 -0.138,2.009 -0.117,3.065 0,0.716 0.04,1.38 0.085,2.024 1.218,17.622 16.175,31.435 34.098,31.435 h 0.62 c 17.89,0 32.868,-13.813 34.1,-31.435 0.056,-0.644 0.079,-1.308 0.079,-2.024 0.025,-1.056 -0.023,-2.079 -0.115,-3.065 C 33.71,13.638 18.922,0 1.443,0 Z M 39.212,84.564 C 28.516,92.542 15.202,97.274 0.805,97.274 H 0.638 c -14.402,0 -27.706,-4.732 -38.406,-12.71 -15.565,-11.557 -25.685,-29.95 -25.743,-50.602 -0.054,-16.981 6.568,-32.936 18.574,-44.993 2.217,-2.255 4.611,-4.321 7.088,-6.143 10.897,-8.148 24.032,-12.541 37.849,-12.541 h 1.443 c 13.818,0 26.964,4.393 37.852,12.541 2.473,1.822 4.861,3.888 7.085,6.143 C 58.394,1.026 64.976,16.981 64.955,33.962 64.894,54.614 54.77,73.007 39.212,84.564"
             style="fill:#3daf2c;fill-opacity:1;fill-rule:nonzero;stroke:none"
             id="path74" /></g><g
           id="g76"
           transform="translate(1184.7279,505.5864)"><path
             d="m 0,0 -23.273,43.822 1.598,0.916 c 3.004,1.721 5.792,3.811 8.317,6.217 2.528,2.422 4.73,5.143 6.535,8.088 1.837,2.95 3.274,6.176 4.298,9.582 1.013,3.362 1.532,6.977 1.532,10.763 0,5.529 -1.069,10.808 -3.198,15.684 -2.125,4.885 -5.091,9.215 -8.794,12.888 -3.71,3.652 -8.126,6.582 -13.114,8.726 -4.967,2.12 -10.389,3.202 -16.088,3.202 H -98.57 c -0.696,0 -1.183,-0.15 -1.44,-0.439 -0.333,-0.376 -0.489,-0.92 -0.489,-1.67 V -4.035 c 0,-0.706 0.13,-1.178 0.396,-1.412 0.34,-0.301 0.846,-0.442 1.533,-0.442 h 25.922 c 1.799,0 2.101,0.574 2.101,1.854 V 96.673 l 23.493,-0.132 c 2.22,-0.325 4.28,-1.064 6.113,-2.181 1.803,-1.099 3.378,-2.475 4.675,-4.104 1.301,-1.595 2.31,-3.395 3.019,-5.334 0.707,-1.931 1.075,-3.915 1.075,-5.889 0,-2.051 -0.326,-4.085 -0.968,-6.052 -0.634,-1.951 -1.59,-3.76 -2.841,-5.364 -1.245,-1.614 -2.81,-2.979 -4.636,-4.061 -1.85,-1.084 -3.947,-1.773 -6.251,-2.03 -1,-0.129 -1.937,-0.208 -2.782,-0.274 -0.802,-0.061 -1.757,-0.091 -2.924,-0.091 l -8.465,-0.014 c -2.046,-0.004 -3.358,-2.177 -2.41,-3.989 l 32.682,-62.429 c 0.08,-0.075 0.177,-0.147 0.29,-0.223 0.393,-0.254 0.914,-0.395 1.464,-0.395 H 0.831 c 0.589,0 1.025,0.109 1.286,0.322 0.068,0.046 0.212,0.163 0.212,0.66 0,0.262 -0.1,0.858 -0.7,1.918 C 0.945,-1.818 0.414,-0.842 0,0"
             style="fill:#3daf2c;fill-opacity:1;fill-rule:nonzero;stroke:none"
             id="path78" /></g><g
           id="g80"
           transform="translate(934.5396,584.3679)"><path
             d="m 0,0 c 0,-16.776 -9.426,-38.167 -37.578,-38.167 h -14.828 c -1.034,0 -1.98,0.587 -2.44,1.514 l -7.897,15.901 c -0.599,1.208 0.279,2.625 1.628,2.625 h 12.457 c 7.184,0 17.472,4.197 17.472,17.76 0,12.215 -10.268,17.511 -14.902,17.511 -5.925,0 -23.473,0.14 -23.473,0.14 V -83.437 c 0,-1.276 -0.281,-1.834 -2.091,-1.834 h -25.926 c -0.695,0 -1.201,0.142 -1.534,0.45 -0.279,0.22 -0.393,0.689 -0.393,1.384 v 121.84 c 0,0.751 0.149,1.279 0.483,1.668 0.243,0.276 0.749,0.419 1.444,0.419 h 56.362 C -27.925,40.49 0,32.966 0,0"
             style="fill:#3daf2c;fill-opacity:1;fill-rule:nonzero;stroke:none"
             id="path82" /></g><g
           id="g84"
           transform="translate(1295.7498,501.3152)"><path
             d="M 0,0 V 1.347 C 0,13.762 10.064,23.826 22.479,23.826 H 43.02 c 11.684,0 16.32,4.822 16.32,12.426 0,7.975 -9.273,9.83 -20.4,11.869 -17.248,3.153 -39.317,7.233 -39.317,36.721 0,22.997 17.432,39.317 43.582,39.317 h 38.377 c 1.078,0 1.952,-0.874 1.952,-1.952 V 120.86 C 83.534,108.445 73.47,98.381 61.055,98.381 H 43.576 c -10.757,0 -15.022,-6.121 -15.022,-12.426 0,-7.975 9.273,-9.83 20.586,-11.87 17.433,-3.152 39.502,-7.232 39.502,-36.72 0,-24.11 -18.175,-39.317 -45.622,-39.317 H 1.952 C 0.874,-1.952 0,-1.078 0,0"
             style="fill:#3daf2c;fill-opacity:1;fill-rule:nonzero;stroke:none"
             id="path86" /></g><g
           id="g88"
           transform="translate(731.1847,501.3152)"><path
             d="M 0,0 V 1.347 C 0,13.762 10.064,23.826 22.479,23.826 H 43.02 c 11.684,0 16.32,4.822 16.32,12.426 0,7.975 -9.273,9.83 -20.4,11.869 -17.248,3.153 -39.317,7.233 -39.317,36.721 0,22.997 17.432,39.317 43.582,39.317 h 38.377 c 1.078,0 1.952,-0.874 1.952,-1.952 V 120.86 C 83.534,108.445 73.47,98.381 61.055,98.381 H 43.576 c -10.757,0 -15.022,-6.121 -15.022,-12.426 0,-7.975 9.273,-9.83 20.586,-11.87 17.433,-3.152 39.502,-7.232 39.502,-36.72 0,-24.11 -18.175,-39.317 -45.622,-39.317 H 1.952 C 0.874,-1.952 0,-1.078 0,0"
             style="fill:#3daf2c;fill-opacity:1;fill-rule:nonzero;stroke:none"
             id="path90" /></g><g
           id="g92"
           transform="translate(707.3437,562.6245)"><path
             d="m 0,0 c 0.07,-27.533 -10.627,-53.46 -30.088,-72.985 -19.504,-19.545 -45.394,-30.296 -72.904,-30.296 h -64.173 c -1.362,0 -2.583,0.565 -3.464,1.588 -0.869,1.027 -1.258,2.366 -1.053,3.703 1.875,11.906 8.012,22.805 17.278,30.688 9.271,7.872 21.006,12.211 33.054,12.211 h 18.358 c 28.315,0 52.309,22.105 54.6,50.342 0.124,1.458 0.184,3.025 0.184,5.024 -0.022,1.151 -0.06,2.205 -0.146,3.218 -1.978,28.599 -26.263,50.99 -55.308,50.99 h -17.688 c -13.605,0 -26.398,5.314 -36.036,14.931 -7.521,7.518 -12.589,17.445 -14.28,27.945 -0.2,1.386 0.168,2.705 1.01,3.728 0.887,1.032 2.167,1.608 3.501,1.608 h 63.126 C -46.83,102.695 -0.156,56.625 0,0"
             style="fill:#00abec;fill-opacity:1;fill-rule:nonzero;stroke:none"
             id="path94" /></g><g
           id="g96"
           transform="translate(573.0807,561.876)"><path
             d="m 0,0 c 0,-18.569 15.057,-33.624 33.637,-33.624 18.575,0 33.638,15.055 33.638,33.624 0,18.577 -15.063,33.64 -33.638,33.64 C 15.057,33.64 0,18.577 0,0"
             style="fill:#3daf2c;fill-opacity:1;fill-rule:nonzero;stroke:none"
             id="path98" /></g></g></g><g
       id="g100"><g
         id="g102"><g
           id="g108"><g
             id="g110"><path
               d="m 540.185,665.32 c -1.341,0 -2.611,-0.57 -3.499,-1.609 v 0 c -0.848,-1.021 -1.208,-2.344 -1.011,-3.72 v 0 c 1.683,-10.518 6.751,-20.432 14.268,-27.949 v 0 c 9.647,-9.617 22.44,-14.928 36.052,-14.928 v 0 h 17.691 c 29.034,0 53.309,-22.394 55.311,-51.004 v 0 c 0.069,-1.01 0.115,-2.055 0.128,-3.216 v 0 c 0,-1.996 -0.059,-3.564 -0.175,-5.026 v 0 c -2.293,-28.222 -26.288,-50.336 -54.603,-50.336 v 0 h -18.352 c -12.045,0 -23.781,-4.342 -33.058,-12.213 v 0 c -9.28,-7.894 -15.416,-18.783 -17.273,-30.694 v 0 c -0.209,-1.335 0.174,-2.669 1.039,-3.703 v 0 c 0.888,-1.027 2.101,-1.579 3.465,-1.579 v 0 h 16.572 c 27.513,0 53.429,10.749 72.91,30.299 v 0 c 19.473,19.526 30.159,45.449 30.101,72.997 v 0 C 659.6,619.255 612.927,665.32 555.712,665.32 v 0 z"
               style="fill:url(#linearGradient118);stroke:none"
               id="path120" /></g></g></g></g></g></svg>
